<svg width="64" height="64" viewBox="0 0 112 112" fill="none" xmlns="http://www.w3.org/2000/svg">
<path d="M74.3849 74.3849C71.9706 76.7992 69.1043 78.7144 65.9498 80.0211C62.7954 81.3277 59.4144 82.0002 56 82.0002C52.5856 82.0002 49.2046 81.3277 46.0502 80.0211C42.8957 78.7144 40.0294 76.7992 37.6151 74.3849M108 56C108 62.8287 106.655 69.5906 104.042 75.8995C101.428 82.2085 97.5982 87.9409 92.7695 92.7695C87.9409 97.5982 82.2085 101.428 75.8995 104.042C69.5906 106.655 62.8287 108 56 108C49.1713 108 42.4094 106.655 36.1005 104.042C29.7915 101.428 24.0591 97.5982 19.2304 92.7695C14.4018 87.9409 10.5715 82.2085 7.95826 75.8995C5.34502 69.5906 4 62.8287 4 56C4 42.2087 9.47855 28.9823 19.2304 19.2304C28.9823 9.47856 42.2087 4 56 4C69.7913 4 83.0177 9.47856 92.7695 19.2304C102.521 28.9823 108 42.2087 108 56ZM43 43C43 45.392 42.0293 47.3333 40.8333 47.3333C39.6373 47.3333 38.6667 45.392 38.6667 43C38.6667 40.608 39.6373 38.6667 40.8333 38.6667C42.0293 38.6667 43 40.608 43 43ZM40.8333 43H40.8796V43.0867H40.8333V43ZM73.3333 43C73.3333 45.392 72.3627 47.3333 71.1667 47.3333C69.9707 47.3333 69 45.392 69 43C69 40.608 69.9707 38.6667 71.1667 38.6667C72.3627 38.6667 73.3333 40.608 73.3333 43ZM71.1667 43H71.2129V43.0867H71.1667V43Z" stroke="#0EA022" stroke-width="6.57778" stroke-linecap="round" stroke-linejoin="round"/>
</svg>
