<svg width="64" height="64" viewBox="0 0 111 111" fill="none" xmlns="http://www.w3.org/2000/svg">
<path d="M74.1947 80.7405C69.3595 75.8928 62.7985 73.1615 55.9517 73.1459C52.5303 73.1293 49.1398 73.7921 45.9766 75.0957C42.8133 76.3994 39.9404 78.3181 37.5243 80.7405M107.719 55.8595C107.719 62.6697 106.378 69.4133 103.771 75.7052C101.165 81.9971 97.3452 87.714 92.5296 92.5296C87.714 97.3452 81.9971 101.165 75.7052 103.771C69.4133 106.378 62.6697 107.719 55.8595 107.719C49.0492 107.719 42.3056 106.378 36.0137 103.771C29.7218 101.165 24.0049 97.3452 19.1893 92.5296C14.3737 87.714 10.5537 81.9971 7.94757 75.7052C5.34138 69.4133 4 62.6697 4 55.8595C4 42.1055 9.46375 28.9148 19.1893 19.1893C28.9148 9.46375 42.1055 4 55.8595 4C69.6134 4 82.8041 9.46375 92.5296 19.1893C102.255 28.9148 107.719 42.1055 107.719 55.8595ZM42.8946 42.8946C42.8946 45.2801 41.9266 47.2162 40.7338 47.2162C39.541 47.2162 38.573 45.2801 38.573 42.8946C38.573 40.5091 39.541 38.573 40.7338 38.573C41.9266 38.573 42.8946 40.5091 42.8946 42.8946ZM40.7338 42.8946H40.7799V42.981H40.7338V42.8946ZM73.1459 42.8946C73.1459 45.2801 72.1779 47.2162 70.9851 47.2162C69.7924 47.2162 68.8243 45.2801 68.8243 42.8946C68.8243 40.5091 69.7924 38.573 70.9851 38.573C72.1779 38.573 73.1459 40.5091 73.1459 42.8946ZM70.9851 42.8946H71.0312V42.981H70.9851V42.8946Z" stroke="#E01226" stroke-width="6.56" stroke-linecap="round" stroke-linejoin="round"/>
</svg>
