<svg width="64" height="64" viewBox="0 0 64 64" fill="none" xmlns="http://www.w3.org/2000/svg">
<circle cx="32" cy="32" r="29" stroke="#12E02B" stroke-width="6"/>
<path d="M60 52C60 57.5228 55.5228 62 50 62C44.4772 62 40 57.5228 40 52C40 46.4772 44.4772 42 50 42C55.5228 42 60 46.4772 60 52Z" fill="#12E02B"/>
<path fill-rule="evenodd" clip-rule="evenodd" d="M55.7336 48.4835C55.8836 48.6335 55.9679 48.837 55.9679 49.0491C55.9679 49.2612 55.8836 49.4647 55.7336 49.6147L49.3336 56.0147C49.1836 56.1647 48.9802 56.2489 48.768 56.2489C48.5559 56.2489 48.3525 56.1647 48.2024 56.0147L45.0024 52.8147C44.8567 52.6638 44.7761 52.4617 44.7779 52.252C44.7797 52.0422 44.8639 51.8416 45.0122 51.6932C45.1605 51.5449 45.3612 51.4608 45.5709 51.459C45.7807 51.4571 45.9828 51.5378 46.1336 51.6835L48.768 54.3179L54.6024 48.4835C54.7525 48.3335 54.9559 48.2493 55.168 48.2493C55.3802 48.2493 55.5836 48.3335 55.7336 48.4835Z" fill="white"/>
</svg>
